# xmcd CD database file
#
# Track frame offsets:
#	150
#	22788
#	42532
#	62602
#	79791
#	101471
#	122920
#	144897
#	167713
#	190705
#	211203
#	235007
#	254392
#	276127
#	296717
#
# Disc length: 4208 seconds
#
# Revision: 5
# Processed by: cddbd v1.5.1PL0 Copyright (c) Steve Scherf et al.
# Submitted via: CDex 1.51
#
DISCID=cc106e0f
DTITLE=モーニング娘。 - ベスト！モーニング娘。１
DYEAR=2001
DGENRE=JPop
TTITLE0=LOVE MACHINE
TTITLE1=抱いて HOLD ON ME!
TTITLE2=恋のダンスサイト
TTITLE3=サマーナイトタウン
TTITLE4=ハッピーサマーウェディング
TTITLE5=I WISH
TTITLE6=恋愛レボリューション21
TTITLE7=Memory 青春の光
TTITLE8=真夏の光線
TTITLE9=モーニングコーヒー
TTITLE10=ふるさと
TTITLE11=Say Yeah! -もっとミラクルナイト-
TTITLE12=DANCE するのだ!
TTITLE13=Never Forget
TTITLE14=愛の種
EXTD=YEAR: 2001
EXTT0=
EXTT1=
EXTT2=
EXTT3=
EXTT4=
EXTT5=
EXTT6=
EXTT7=
EXTT8=
EXTT9=
EXTT10=
EXTT11=
EXTT12=
EXTT13=
EXTT14=
PLAYORDER=
